<svg width="67" height="100" viewBox="0 0 67 100" fill="none" xmlns="http://www.w3.org/2000/svg">
<g clip-path="url(#clip0_1425_123)">
<path d="M16.6683 100C25.8683 100 33.335 92.5334 33.335 83.3334V66.6667H16.6683C7.46833 66.6667 0.00166702 74.1334 0.00166702 83.3334C0.00166702 92.5334 7.46833 100 16.6683 100Z" fill="#0ACF83"/>
<path d="M0.00166702 50C0.00166702 40.8 7.46833 33.3333 16.6683 33.3333H33.335V66.6666H16.6683C7.46833 66.6666 0.00166702 59.2 0.00166702 50Z" fill="#A259FF"/>
<path d="M0.00166702 16.6667C0.00166702 7.46667 7.46833 0 16.6683 0H33.335V33.3333H16.6683C7.46833 33.3333 0.00166702 25.8667 0.00166702 16.6667Z" fill="#F24E1E"/>
<path d="M33.335 0H50.0017C59.2017 0 66.6683 7.46667 66.6683 16.6667C66.6683 25.8667 59.2017 33.3333 50.0017 33.3333H33.335V0Z" fill="#FF7262"/>
<path d="M66.6683 50C66.6683 59.2 59.2017 66.6666 50.0017 66.6666C40.8017 66.6666 33.335 59.2 33.335 50C33.335 40.8 40.8017 33.3333 50.0017 33.3333C59.2017 33.3333 66.6683 40.8 66.6683 50Z" fill="#1ABCFE"/>
</g>
<defs>
<clipPath id="clip0_1425_123">
<rect width="66.67" height="100" fill="white"/>
</clipPath>
</defs>
</svg>
