<svg width="30" height="30" viewBox="0 0 30 30" fill="none" xmlns="http://www.w3.org/2000/svg">
<g clip-path="url(#clip0_1426_56)">
<path d="M15.9792 7.375V2.45833M6.14585 7.375V4.91667M11.0625 7.375V0M1.22919 22.125V11.0625H20.8959V22.125C20.8959 27.0417 18.4375 28.2708 11.0625 28.2708C3.68752 28.2708 1.22919 27.0417 1.22919 22.125ZM20.8959 11.0625V14.75C20.8959 15.4793 21.1121 16.1923 21.5173 16.7987C21.9225 17.4051 22.4984 17.8777 23.1722 18.1568C23.846 18.4359 24.5874 18.5089 25.3027 18.3666C26.0181 18.2244 26.6751 17.8732 27.1908 17.3575C27.7065 16.8418 28.0577 16.1847 28.2 15.4694C28.3423 14.7541 28.2693 14.0127 27.9902 13.3389C27.7111 12.6651 27.2384 12.0891 26.632 11.684C26.0256 11.2788 25.3127 11.0625 24.5834 11.0625H20.8959Z" stroke="black" stroke-width="2.45833"/>
</g>
<defs>
<clipPath id="clip0_1426_56">
<rect width="29.5" height="29.5" fill="white"/>
</clipPath>
</defs>
</svg>
