<svg width="74" height="100" viewBox="0 0 74 100" fill="none" xmlns="http://www.w3.org/2000/svg">
<g clip-path="url(#clip0_1425_96)">
<path d="M23.8603 77.3043C23.8603 77.3043 20.0459 79.5225 26.5751 80.2731C34.4852 81.1754 38.5277 81.0462 47.2447 79.3962C47.2447 79.3962 49.5366 80.8332 52.7369 82.078C33.1962 90.4529 8.51176 81.5928 23.8603 77.3043M21.4725 66.3754C21.4725 66.3754 17.1941 69.5425 23.7282 70.2182C32.1779 71.0899 38.8508 71.1613 50.3976 68.9379C50.3976 68.9379 51.9947 70.5569 54.506 71.4425C30.8797 78.3511 4.56436 71.9873 21.4725 66.3754" fill="#5382A1"/>
<path d="M41.6025 47.8367C46.4175 53.38 40.3375 58.3685 40.3375 58.3685C40.3375 58.3685 52.5632 52.0572 46.9485 44.1537C41.7045 36.7838 37.6829 33.1214 59.4537 20.4954C59.4537 20.4954 25.2808 29.03 41.6025 47.8364" fill="#E76F00"/>
<path d="M67.447 85.3878C67.447 85.3878 70.2699 87.7136 64.3381 89.513C53.0589 92.93 17.3924 93.9618 7.48431 89.6491C3.92275 88.1 10.6019 85.9497 12.7028 85.4983C14.8938 85.0231 16.1462 85.1118 16.1462 85.1118C12.1852 82.3214 -9.45587 90.5907 5.15367 92.9587C44.9956 99.4199 77.7814 90.0494 67.447 85.3878ZM25.6944 55.052C25.6944 55.052 7.55251 59.3613 19.2701 60.9257C24.2175 61.5881 34.0803 61.4384 43.2673 60.6685C50.7753 60.0355 58.3144 58.6887 58.3144 58.6887C58.3144 58.6887 55.667 59.8225 53.7516 61.1303C35.3285 65.9757 -0.261648 63.7217 9.98431 58.7653C18.6493 54.5769 25.6947 55.052 25.6947 55.052M58.2395 73.2433C76.9678 63.5116 68.3086 54.1595 62.2647 55.4196C60.7831 55.7277 60.1227 55.9948 60.1227 55.9948C60.1227 55.9948 60.6727 55.1335 61.723 54.7607C73.6797 50.5569 82.8753 67.1587 57.8632 73.7338C57.8632 73.7341 58.1531 73.4751 58.2395 73.2433Z" fill="#5382A1"/>
<path d="M46.9485 0.107223C46.9485 0.107223 57.3204 10.4829 37.1112 26.437C20.9057 39.2353 33.4158 46.5324 37.1045 54.8697C27.645 46.335 20.7028 38.8217 25.3603 31.8292C32.1959 21.5642 51.1331 16.5876 46.9485 0.106934" fill="#E76F00"/>
<path d="M27.5349 99.6142C45.5115 100.765 73.1164 98.9757 73.7701 90.4697C73.7701 90.4697 72.5135 93.6945 58.9135 96.2552C43.5701 99.1425 24.6464 98.8055 13.4225 96.9549C13.4227 96.9549 15.7201 98.8567 27.5352 99.6142" fill="#5382A1"/>
</g>
<defs>
<clipPath id="clip0_1425_96">
<rect width="73.99" height="100" fill="white"/>
</clipPath>
</defs>
</svg>
